<svg xmlns="http://www.w3.org/2000/svg" width="600" height="400" viewBox="0 0 600 400"><rect width="100%" height="100%" fill="#DDDDDD"/><path fill="#999999" d="m275 141.3-6.7 12.7q-1.2 2.1-2.55 3.05-1.35.95-3.35.95-2.1 0-4.55-1.55-2.45-1.55-5.85-3.45-3.4-1.9-7.95-3.45Q239.5 148 233.3 148q-5.6 0-9.8 1.35-4.2 1.35-7.05 3.75-2.85 2.4-4.25 5.75t-1.4 7.35q0 5.1 2.85 8.5 2.85 3.4 7.55 5.8 4.7 2.4 10.7 4.3 6 1.9 12.3 4.05 6.3 2.15 12.3 5 6 2.85 10.7 7.2 4.7 4.35 7.55 10.65 2.85 6.3 2.85 15.3 0 9.8-3.35 18.35t-9.8 14.9q-6.45 6.35-15.75 10-9.3 3.65-21.3 3.65-6.9 0-13.6-1.35-6.7-1.35-12.85-3.85-6.15-2.5-11.55-6t-9.6-7.8l7.9-12.9q1-1.4 2.6-2.35 1.6-.95 3.4-.95 2.5 0 5.4 2.05 2.9 2.05 6.9 4.55t9.35 4.55q5.35 2.05 12.85 2.05 11.5 0 17.8-5.45 6.3-5.45 6.3-15.65 0-5.7-2.85-9.3-2.85-3.6-7.55-6.05-4.7-2.45-10.7-4.15-6-1.7-12.2-3.7-6.2-2-12.2-4.8-6-2.8-10.7-7.3-4.7-4.5-7.55-11.25-2.85-6.75-2.85-16.65 0-7.9 3.15-15.4t9.15-13.3q6-5.8 14.8-9.3 8.8-3.5 20.2-3.5 12.8 0 23.6 4t18.4 11.2Zm97.2 58.5h48v58.5q-11 8.1-23.45 11.85t-26.65 3.75q-17.7 0-32.05-5.5-14.35-5.5-24.5-15.3t-15.65-23.4q-5.5-13.6-5.5-29.7 0-16.3 5.3-29.9 5.3-13.6 15.05-23.4 9.75-9.8 23.65-15.2 13.9-5.4 31.2-5.4 8.8 0 16.45 1.4 7.65 1.4 14.2 3.85 6.55 2.45 11.95 5.95 5.4 3.5 9.9 7.7l-7.7 12.2q-1.8 2.9-4.7 3.55-2.9.65-6.3-1.45l-6.6-3.8q-3.3-1.9-7.35-3.3t-9.1-2.3q-5.05-.9-11.65-.9-10.7 0-19.35 3.6-8.65 3.6-14.75 10.3-6.1 6.7-9.4 16.1-3.3 9.4-3.3 21 0 12.4 3.55 22.15 3.55 9.75 10 16.5t15.55 10.3q9.1 3.55 20.3 3.55 8 0 14.3-1.7 6.3-1.7 12.3-4.6V220h-18.2q-2.6 0-4.05-1.45-1.45-1.45-1.45-3.55v-15.2Z"/></svg>